<?xml version="1.0" encoding="utf-8"?>
<!-- Generator: Adobe Illustrator 27.2.0, SVG Export Plug-In . SVG Version: 6.00 Build 0)  -->
<svg version="1.1" id="Layer_1" xmlns="http://www.w3.org/2000/svg" xmlns:xlink="http://www.w3.org/1999/xlink" x="0px" y="0px" width="128" height="128"
	 viewBox="0 0 128 128" enable-background="new 0 0 128 128" xml:space="preserve">
<g>
	<path fill="#EF664D" stroke="#000000" stroke-width="0.8286" stroke-miterlimit="10" d="M1.626,70.427
		c-0.013-0.268-0.028-0.531-0.041-0.799c2.393-1.767,5.977-3.468,8.373-5.236c-0.03-0.119,14.302-3.6,13.756-5.682
		c-0.546-2.082-18.544,6.218-20.559,6.771c1.766-2.399,1.834-2.622,1.404-5.438c-0.16-1.052-0.4-2.093-0.656-3.128
		c-1.333-5.378-1.336-5.362,4.177-6.184c0.91-0.136,9.928,0.857,9.926-0.704c0.001-1.421-8.815-2.388-9.895-2.608
		c-1.888-0.385-3.779-0.75-5.884-1.163c0.59-2.141,1.128-4.119,1.677-6.093c1.412-5.058,1.416-5.062,6.449-3.482
		c1.62,0.511,14.077,5.233,15.119,4.341c1.042-0.892-11.44-8.311-10.707-8.836c3.21-1.559,5.982-0.795,6.513-4.346
		c0.282-1.9,1.534-2.49,3.179-1.836c3.28,1.305,4.793,3.91,8.027,5.325c0.515,0.225,10.527,10.458,9.181,4.902
		c-1.346-5.557-5.746-5.714-5.64-5.927c-2.829-1.692-5.657-3.381-8.666-5.184c2.061-2.47,4.116-4.833,6.044-7.296
		c0.858-1.094,1.614-1.226,2.655-0.368c1.806,1.49,3.58,3.014,5.47,4.395c0.533,0.392,6.417,7.803,7.13,7.95
		c0.049-0.215-4.917-7.898-4.868-8.108c-0.659-0.714-1.322-1.424-2.134-2.306c2.137-2.01,4.17-3.922,6.204-5.834
		c0.133-0.007,0.271-0.015,0.402-0.021c1.944,2.36,12.6,23.571,10.933,16.383s-5.939-12.174-6.57-13.538
		c-0.846-1.805-0.143-2.334,1.594-2.522c1.517-0.164,3.003-0.574,4.509-0.874c0.805-0.042,1.61-0.085,2.415-0.127
		c0.504,1.839,1.007,3.674,1.567,5.714c0.557-0.69,2.603,6.327,2.967,5.876c1.071,0.6,0.343-6.31,1.312-5.761
		c1.355-1.845,2.587-3.498,3.79-5.171c0.62-0.865,5.387-4.21,6.321-3.651c2.237,1.339,5.47,1.517,7.754,2.775
		c0.627,0.343-17.404,19.655-9.007,14.144s16.888-8.15,22.313-9.548c0.721-0.186,1.847,0.423,2.529,0.975
		c1.63,1.32,3.118,2.814,4.642,4.259c2.151,2.041,3.967-0.441,5.967-0.441c0.457-0.001,0.919-0.189,1.369-0.321
		c1.529-0.453,2.377,0.103,2.797,1.63c0.438,1.602,0.993,3.183,1.616,4.723c0.529,1.313,0.025,1.788-1.228,2.046
		c-1.676,0.344-26.481,7.805-19.872,7.689c6.609-0.116,18.488-4.634,20.279-3.948c1.222,0.468,1.68,1.173,1.041,2.447
		c-0.504,1.011-0.846,2.102-1.304,3.139c-0.497,1.123-0.203,1.656,1.04,1.975c2.911,0.748,5.791,1.641,8.684,2.473
		c0.02,0.399,0.041,0.799,0.063,1.198c-0.375,2.069-0.804,4.13-1.102,6.207c-0.184,1.271-14.256,1.432-16.445,0.778
		c1.791,1.219,16.866,2.943,18.113,3.794c0.02,0.4,0.043,0.798,0.063,1.198c-0.974,2.185-2.056,4.332-2.874,6.572
		c-0.331,0.906-0.319,2.066-0.09,3.023c0.454,1.906,1.17,3.753,1.882,5.966c-2.449-0.608-6.44-3.958-8.499-4.471
		c-7.553-1.839-19.616-1.439-13.337,0.161s6.929,0.165,14.331,4.014c1.452,0.985,3.783,2.598,2.662,4.162
		c-1.432,2.005-2.531,4.244-3.947,6.264c-0.697,0.997-0.862,1.85-0.779,3.055c0.087,1.268-0.055,3.073-0.862,3.764
		c-1.402,1.199-3.397,1.716-5.26,2.575c-0.6-1.505-1.114-2.792-1.63-4.082c-0.249,0.117-0.497,0.23-0.745,0.348
		c0.741,1.494,1.576,2.947,2.174,4.497c0.261,0.675,0.364,1.862-0.031,2.259c-1.541,1.546-3.307,2.868-5.216,4.462
		c-0.465-0.692-0.814-1.218-1.27-1.899c-0.249,0.465-5.149-5.951-6.585-5.84c-1.326,0.102,0.806,6.762,0.546,6.466
		c0.592,2.299,1.514,4.408,2.266,6.57c0.185,0.531,0.018,1.653-0.328,1.827c-2.918,1.446-5.916,2.737-9.155,4.196
		c-1.985-6.196-4.282-11.956-7.908-17.165c-0.252,0.645-0.32,1.257-0.163,1.81c0.199,0.698,0.627,1.324,0.877,2.011
		c1.475,4.062,2.957,8.127,4.378,12.208c0.603,1.73,0.253,2.909-1.912,3.151c-1.589,0.176-3.16,0.611-4.711,1.037
		c-1.734,0.471-2.441,0.06-2.733-1.874c-0.754-4.992-1.806-9.945-2.764-14.907c-0.073-0.38-3.304-2.85-3.636-3.493
		c4.97,10.286,2.006,14.311,1.513,20.65c-3.71-3.091-7.711-1.392-11.4-2.23c0.355-1.32,0.67-2.525,1.003-3.724
		c0.394-1.426-0.624-5.132-2.124-9.398c-1.5-4.266-1.709,8.474-1.61,10.038c0.167,2.625,0.284,5.253,0.437,8.143
		c-1.92-0.067-3.647-0.06-5.36-0.194c-5.32-0.421-4.622,0.503-3.889-4.583c0.056-0.395,0.185-0.799,0.144-1.185
		c-0.039-0.358,2.48-9.492,0.985-12.824c-1.495-3.332-6.006,11.555-6.839,13.271c-1.034,2.132-2.031,4.282-3.088,6.516
		c-3.045-1.301-5.857-2.502-8.858-3.785c0.701-1.474,1.305-2.743,1.998-4.2c-0.811-3.007,2.301-15.004,0.964-16.744
		s-3.587,5.897-3.629,5.867c-1.722,1.708-8.362,3.19-8.652,4.194c-0.345,1.187-0.924,1.606-2.188,1.272
		c-2.201-0.581-4.427-1.092-6.668-1.511c-1.444-0.268-1.836-0.992-1.671-2.374c0.526-4.427,2.582-8.07,5.631-11.241
		c0.493-0.514,5.713-8.364,5.061-10.407c-0.652-2.043-9.213,6.954-11.153,10.9c-1.207-1.318-2.367-2.589-3.527-3.858
		c-4.435-4.843-4.43-4.839,1.112-8.613c0.761-0.521,1.476-1.103,2.214-1.658c-0.136-0.193-0.267-0.382-0.402-0.575
		c-1.317,0.798-2.635,1.6-4.039,2.45C5.215,75.366,3.419,72.895,1.626,70.427z"/>
	<path fill="#FFFFFF" stroke="#000000" stroke-width="0.8286" stroke-linejoin="round" stroke-miterlimit="10" d="M65.775,60.497
		c0,0,11.84-4.716,18.353-4.363c6.514,0.353,18.304,7.001,18.304,7.001l-7.169,6.928c0,0-12.243-7.936-17.133-7.722
		S65.775,60.497,65.775,60.497z"/>
	<path fill="#FFFFFF" stroke="#000000" stroke-width="0.8286" stroke-linejoin="round" stroke-miterlimit="10" d="M61.059,56.714
		c0,0-8.183-10.547-16.786-10.098c-8.604,0.449-18.762,7.084-18.762,7.084l3.271,8.757c0,0,7.582-6.466,13.789-7.308
		S61.059,56.714,61.059,56.714z"/>
	<path fill="#FFFFFF" stroke="#000000" stroke-width="0.8286" stroke-linejoin="round" stroke-miterlimit="10" d="M65.981,52.669
		c0,0,0.917-6.435,6.56-10.53c5.643-4.095,10.401-5.1,10.401-5.1l0.923,6.278c0,0-5.606-0.217-8.597,1.93
		S65.981,52.669,65.981,52.669z"/>
	<path fill="#FFFFFF" stroke="#000000" stroke-width="0.8286" stroke-linejoin="round" stroke-miterlimit="10" d="M60.608,46.397
		c0,0-2.217-3.154-6.984-6.809s-9.744-5.841-9.744-5.841l7.258-6.967c0,0,2.503,2.836,4.277,5.458
		C57.19,34.86,60.608,46.397,60.608,46.397z"/>
	<path fill="#FFFFFF" stroke="#000000" stroke-width="0.8286" stroke-linejoin="round" stroke-miterlimit="10" d="M63.542,47.05
		c0,0,1.642-17.462-0.1-21.476c-1.742-4.014-2.672-6.155-2.672-6.155l7.905,0.385c0,0,1.919,6.375,1.16,9.143
		S63.542,47.05,63.542,47.05z"/>
	<path fill="#FFFFFF" stroke="#000000" stroke-width="0.8286" stroke-linejoin="round" stroke-miterlimit="10" d="M60.066,62.975
		c0,0-12.161-3.838-19.879,0.361S27.063,77.302,27.063,77.302l9.424,2.906c0,0,2.444-9.754,6.42-11.585S60.066,62.975,60.066,62.975
		z"/>
	<path fill="#FFFFFF" stroke="#000000" stroke-width="0.8286" stroke-linejoin="round" stroke-miterlimit="10" d="M59.79,72.547
		c0,0-9.678,3.289-13.568,8.93c-2.201,3.192-2.95,10.717-2.95,10.717l8.431,0.006c0,0-0.544-5.893,0.86-9.422
		C54.494,77.926,59.79,72.547,59.79,72.547z"/>
	<path fill="#FFFFFF" stroke="#000000" stroke-width="0.8286" stroke-linejoin="round" stroke-miterlimit="10" d="M77.404,51.633
		c0,0,15.335-8.141,21.636-9.498c6.301-1.357,9.77,1.261,9.77,1.261l-3.909,7.114c0,0-1.951-4.983-7.372-3.796
		S77.404,51.633,77.404,51.633z"/>
	<path fill="#FFFFFF" stroke="#000000" stroke-width="0.8286" stroke-linejoin="round" stroke-miterlimit="10" d="M65.932,64.033
		c0,0,9.113,4.631,11.092,7.482s9.659,17.856,9.659,17.856l-13.665,2.221c0,0,1.691-7.094-1.535-14.281
		C68.259,70.126,65.932,64.033,65.932,64.033z"/>
</g>
</svg>
